<svg width="547.000000" height="394.416595" viewBox="0 0 547 394.417" fill="none" xmlns="http://www.w3.org/2000/svg" xmlns:xlink="http://www.w3.org/1999/xlink">
	<desc>
			Created with Pixso.
	</desc>
	<defs>
		<linearGradient x1="367.662109" y1="48.072308" x2="367.662109" y2="38.810120" id="paint_linear_4_39_0" gradientUnits="userSpaceOnUse">
			<stop stop-color="#808080" stop-opacity="0.250980"/>
			<stop offset="0.540000" stop-color="#808080" stop-opacity="0.121569"/>
			<stop offset="1.000000" stop-color="#808080" stop-opacity="0.101961"/>
		</linearGradient>
		<linearGradient x1="231049.375000" y1="331838.437500" x2="231049.375000" y2="23136.468750" id="paint_linear_4_40_0" gradientUnits="userSpaceOnUse">
			<stop stop-color="#808080" stop-opacity="0.250980"/>
			<stop offset="0.540000" stop-color="#808080" stop-opacity="0.121569"/>
			<stop offset="1.000000" stop-color="#808080" stop-opacity="0.101961"/>
		</linearGradient>
	</defs>
	<g opacity="0.600000">
		<path id="Vector" d="M317.81 69.54C282.75 68.33 249.32 57 217.45 44.61C185.58 32.21 153.99 18.48 119.75 11.92C97.73 7.69 72.55 7.09 54.81 18.9C37.74 30.27 32.22 49.89 29.26 68.09C27.03 81.79 25.73 96.2 31.83 109.02C36.08 117.92 43.61 125.41 48.82 133.93C66.95 163.6 54.14 200.18 34.48 229.17C25.27 242.78 14.58 255.73 7.46 270.19C0.35 284.66 -2.94 301.24 3.28 315.99C9.45 330.6 24.15 341.6 40.07 349.33C72.42 365 110.53 369.49 147.69 372.06C229.95 377.69 312.66 375.25 395.14 372.81C425.66 371.9 456.32 370.99 486.35 366.26C503.02 363.63 520.24 359.47 532.35 349.42C547.71 336.66 551.53 315.06 541.23 299.06C523.95 272.23 476.19 265.57 464.12 236.77C457.47 220.92 464.3 203.27 473.96 188.57C494.67 157.04 529.4 129.37 531.23 93.33C532.49 68.57 515.79 43.78 489.98 32.06C462.92 19.77 425.4 21.32 405.44 41.64C384.89 62.57 348.77 70.62 317.81 69.54Z" fill="#587EEC" fill-opacity="1.000000" fill-rule="nonzero"/>
	</g>
	<path id="Vector" d="M122 365.36C122 365.36 94.3 344.4 89.07 317.75C86.94 306.56 81.25 296.35 72.85 288.67C68.82 285.05 64.48 281.81 59.87 278.99" stroke="#9AB1F3" stroke-opacity="1.000000" stroke-width="2.000000"/>
	<path id="Vector" d="M56.48 262.2C58.9 265.49 60 279.41 60 279.41C60 279.41 47.02 274.3 44.59 271.01C43.42 269.44 42.93 267.46 43.22 265.52C43.51 263.58 44.55 261.83 46.13 260.66C47.71 259.49 49.68 259 51.62 259.29C53.56 259.58 55.31 260.62 56.48 262.2Z" fill="#587EEC" fill-opacity="1.000000" fill-rule="nonzero"/>
	<path id="Vector" d="M79.75 273.13C80.01 277.2 73.37 289.49 73.37 289.49C73.37 289.49 65.25 278.13 64.99 274.05C64.9 272.11 65.57 270.21 66.86 268.76C68.16 267.3 69.97 266.42 71.91 266.3C73.86 266.18 75.77 266.82 77.23 268.1C78.7 269.38 79.6 271.19 79.75 273.13L79.75 273.13Z" fill="#587EEC" fill-opacity="1.000000" fill-rule="nonzero"/>
	<path id="Vector" d="M102.32 304.53C100.48 308.18 88.55 315.44 88.55 315.44C88.55 315.44 87.28 301.53 89.11 297.88C90.01 296.16 91.55 294.87 93.4 294.28C95.24 293.69 97.25 293.85 98.98 294.72C100.71 295.59 102.03 297.11 102.65 298.94C103.28 300.78 103.16 302.78 102.32 304.53Z" fill="#587EEC" fill-opacity="1.000000" fill-rule="nonzero"/>
	<path id="Vector" d="M114.05 332.13C112.85 336.03 102.32 345.2 102.32 345.2C102.32 345.2 98.71 331.71 99.9 327.8C100.48 325.92 101.77 324.35 103.51 323.43C105.24 322.51 107.26 322.31 109.14 322.89C111.01 323.46 112.59 324.76 113.51 326.49C114.43 328.22 114.62 330.25 114.05 332.13Z" fill="#587EEC" fill-opacity="1.000000" fill-rule="nonzero"/>
	<path id="Vector" d="M61.37 299.37C65.4 299.91 78.13 294.16 78.13 294.16C78.13 294.16 67.39 285.25 63.34 284.7C61.39 284.44 59.43 284.96 57.87 286.15C56.31 287.34 55.29 289.1 55.02 291.05C54.76 292.99 55.28 294.96 56.47 296.52C57.66 298.08 59.42 299.1 61.37 299.37Z" fill="#587EEC" fill-opacity="1.000000" fill-rule="nonzero"/>
	<path id="Vector" d="M75.49 331.47C79.52 330.78 89.93 321.48 89.93 321.48C89.93 321.48 77.01 316.2 72.99 316.89C72.02 317.05 71.1 317.4 70.27 317.92C69.44 318.43 68.72 319.11 68.16 319.9C67.59 320.7 67.19 321.6 66.97 322.55C66.76 323.5 66.73 324.49 66.9 325.45C67.06 326.42 67.42 327.34 67.94 328.16C68.47 328.98 69.15 329.7 69.95 330.26C70.75 330.82 71.65 331.21 72.6 331.42C73.56 331.63 74.54 331.65 75.5 331.47L75.49 331.47Z" fill="#587EEC" fill-opacity="1.000000" fill-rule="nonzero"/>
	<path id="Vector" d="M93.5 360.8C97.58 360.8 109.42 353.39 109.42 353.39C109.42 353.39 97.58 346 93.49 346C91.53 346 89.65 346.78 88.27 348.17C86.88 349.55 86.1 351.44 86.1 353.4C86.1 355.36 86.88 357.24 88.27 358.63C89.65 360.02 91.53 360.8 93.49 360.8L93.5 360.8Z" fill="#587EEC" fill-opacity="1.000000" fill-rule="nonzero"/>
	<path id="Vector" d="M391.09 184.13C391.09 184.13 408.16 153.87 433.89 145.15C444.7 141.56 454.05 134.56 460.55 125.2C463.59 120.72 466.22 115.98 468.4 111.02" stroke="#9AB1F3" stroke-opacity="1.000000" stroke-width="2.000000"/>
	<path id="Vector" d="M484.55 105.48C481.62 108.32 467.98 111.27 467.98 111.27C467.98 111.27 471.33 97.71 474.26 94.86C475.67 93.54 477.55 92.82 479.49 92.87C481.43 92.91 483.27 93.72 484.62 95.11C485.97 96.5 486.72 98.37 486.71 100.31C486.69 102.25 485.92 104.11 484.55 105.48Z" fill="#587EEC" fill-opacity="1.000000" fill-rule="nonzero"/>
	<path id="Vector" d="M476.84 129.99C472.81 130.78 459.78 125.83 459.78 125.83C459.78 125.83 469.95 116.26 473.96 115.48C474.92 115.26 475.91 115.25 476.88 115.42C477.85 115.6 478.78 115.97 479.6 116.5C480.42 117.04 481.13 117.74 481.68 118.56C482.24 119.37 482.62 120.29 482.81 121.26C483 122.22 483 123.22 482.8 124.19C482.6 125.15 482.22 126.07 481.66 126.88C481.1 127.69 480.39 128.39 479.56 128.92C478.73 129.45 477.81 129.82 476.84 129.99Z" fill="#587EEC" fill-opacity="1.000000" fill-rule="nonzero"/>
	<path id="Vector" d="M448.76 156.53C444.9 155.2 436.13 144.33 436.13 144.33C436.13 144.33 449.73 141.22 453.6 142.55C454.53 142.86 455.38 143.35 456.12 144C456.86 144.64 457.46 145.42 457.9 146.3C458.33 147.18 458.59 148.14 458.65 149.11C458.71 150.09 458.57 151.07 458.25 152C457.93 152.92 457.43 153.78 456.78 154.51C456.13 155.24 455.34 155.83 454.45 156.25C453.57 156.67 452.61 156.92 451.63 156.96C450.65 157.01 449.68 156.87 448.76 156.53Z" fill="#587EEC" fill-opacity="1.000000" fill-rule="nonzero"/>
	<path id="Vector" d="M422.95 171.83C418.92 171.17 408.47 161.92 408.47 161.92C408.47 161.92 421.35 156.55 425.38 157.21C427.31 157.53 429.05 158.61 430.19 160.2C431.33 161.8 431.8 163.78 431.48 165.72C431.16 167.66 430.09 169.39 428.49 170.54C426.9 171.68 424.91 172.15 422.98 171.83L422.95 171.83Z" fill="#587EEC" fill-opacity="1.000000" fill-rule="nonzero"/>
	<path id="Vector" d="M448.4 115.24C448.4 119.32 455.81 131.18 455.81 131.18C455.81 131.18 463.21 119.34 463.21 115.26C463.23 114.27 463.06 113.29 462.7 112.37C462.34 111.45 461.8 110.61 461.11 109.9C460.42 109.19 459.6 108.63 458.69 108.25C457.78 107.86 456.8 107.67 455.81 107.67C454.83 107.67 453.85 107.86 452.94 108.25C452.03 108.63 451.21 109.19 450.52 109.9C449.83 110.61 449.29 111.45 448.93 112.37C448.57 113.29 448.4 114.27 448.42 115.26L448.4 115.24Z" fill="#587EEC" fill-opacity="1.000000" fill-rule="nonzero"/>
	<path id="Vector" d="M418.47 133.51C419.69 137.41 430.29 146.5 430.29 146.5C430.29 146.5 433.81 132.99 432.59 129.09C431.95 127.28 430.63 125.79 428.92 124.94C427.21 124.08 425.23 123.92 423.4 124.49C421.58 125.06 420.04 126.32 419.12 128.01C418.21 129.69 417.98 131.66 418.48 133.51L418.47 133.51Z" fill="#587EEC" fill-opacity="1.000000" fill-rule="nonzero"/>
	<path id="Vector" d="M391.85 155.26C392.39 159.29 401.29 170.06 401.29 170.06C401.29 170.06 407.04 157.34 406.5 153.29C406.39 152.31 406.09 151.36 405.61 150.5C405.13 149.64 404.48 148.88 403.7 148.28C402.93 147.67 402.04 147.22 401.09 146.96C400.13 146.7 399.14 146.64 398.16 146.77C397.19 146.9 396.25 147.23 395.4 147.73C394.55 148.23 393.81 148.89 393.22 149.69C392.63 150.48 392.2 151.38 391.97 152.34C391.73 153.29 391.69 154.29 391.85 155.26Z" fill="#587EEC" fill-opacity="1.000000" fill-rule="nonzero"/>
	<g opacity="0.250000">
		<path id="Vector" d="M484.55 105.48C481.62 108.32 467.98 111.27 467.98 111.27C467.98 111.27 471.33 97.71 474.26 94.86C475.67 93.54 477.55 92.82 479.49 92.87C481.43 92.91 483.27 93.72 484.62 95.11C485.97 96.5 486.72 98.37 486.71 100.31C486.69 102.25 485.92 104.11 484.55 105.48Z" fill="#000000" fill-opacity="1.000000" fill-rule="nonzero"/>
	</g>
	<g opacity="0.250000">
		<path id="Vector" d="M476.84 129.99C472.81 130.78 459.78 125.83 459.78 125.83C459.78 125.83 469.95 116.26 473.96 115.48C474.92 115.26 475.91 115.25 476.88 115.42C477.85 115.6 478.78 115.97 479.6 116.5C480.42 117.04 481.13 117.74 481.68 118.56C482.24 119.37 482.62 120.29 482.81 121.26C483 122.22 483 123.22 482.8 124.19C482.6 125.15 482.22 126.07 481.66 126.88C481.1 127.69 480.39 128.39 479.56 128.92C478.73 129.45 477.81 129.82 476.84 129.99Z" fill="#000000" fill-opacity="1.000000" fill-rule="nonzero"/>
	</g>
	<g opacity="0.250000">
		<path id="Vector" d="M448.76 156.53C444.9 155.2 436.13 144.33 436.13 144.33C436.13 144.33 449.73 141.22 453.6 142.55C454.53 142.86 455.38 143.35 456.12 144C456.86 144.64 457.46 145.42 457.9 146.3C458.33 147.18 458.59 148.14 458.65 149.11C458.71 150.09 458.57 151.07 458.25 152C457.93 152.92 457.43 153.78 456.78 154.51C456.13 155.24 455.34 155.83 454.45 156.25C453.57 156.67 452.61 156.92 451.63 156.96C450.65 157.01 449.68 156.87 448.76 156.53Z" fill="#000000" fill-opacity="1.000000" fill-rule="nonzero"/>
	</g>
	<g opacity="0.250000">
		<path id="Vector" d="M422.95 171.83C418.92 171.17 408.47 161.92 408.47 161.92C408.47 161.92 421.35 156.55 425.38 157.21C427.31 157.53 429.05 158.61 430.19 160.2C431.33 161.8 431.8 163.78 431.48 165.72C431.16 167.66 430.09 169.39 428.49 170.54C426.9 171.68 424.91 172.15 422.98 171.83L422.95 171.83Z" fill="#000000" fill-opacity="1.000000" fill-rule="nonzero"/>
	</g>
	<g opacity="0.250000">
		<path id="Vector" d="M448.4 115.24C448.4 119.32 455.81 131.18 455.81 131.18C455.81 131.18 463.21 119.34 463.21 115.26C463.23 114.27 463.06 113.29 462.7 112.37C462.34 111.45 461.8 110.61 461.11 109.9C460.42 109.19 459.6 108.63 458.69 108.25C457.78 107.86 456.8 107.67 455.81 107.67C454.83 107.67 453.85 107.86 452.94 108.25C452.03 108.63 451.21 109.19 450.52 109.9C449.83 110.61 449.29 111.45 448.93 112.37C448.57 113.29 448.4 114.27 448.42 115.26L448.4 115.24Z" fill="#000000" fill-opacity="1.000000" fill-rule="nonzero"/>
	</g>
	<g opacity="0.250000">
		<path id="Vector" d="M418.47 133.51C419.69 137.41 430.29 146.5 430.29 146.5C430.29 146.5 433.81 132.99 432.59 129.09C431.95 127.28 430.63 125.79 428.92 124.94C427.21 124.08 425.23 123.92 423.4 124.49C421.58 125.06 420.04 126.32 419.12 128.01C418.21 129.69 417.98 131.66 418.48 133.51L418.47 133.51Z" fill="#000000" fill-opacity="1.000000" fill-rule="nonzero"/>
	</g>
	<g opacity="0.250000">
		<path id="Vector" d="M391.85 155.26C392.39 159.29 401.29 170.06 401.29 170.06C401.29 170.06 407.04 157.34 406.5 153.29C406.39 152.31 406.09 151.36 405.61 150.5C405.13 149.64 404.48 148.88 403.7 148.28C402.93 147.67 402.04 147.22 401.09 146.96C400.13 146.7 399.14 146.64 398.16 146.77C397.19 146.9 396.25 147.23 395.4 147.73C394.55 148.23 393.81 148.89 393.22 149.69C392.63 150.48 392.2 151.38 391.97 152.34C391.73 153.29 391.69 154.29 391.85 155.26Z" fill="#000000" fill-opacity="1.000000" fill-rule="nonzero"/>
	</g>
	<path id="Vector" d="M392.07 183.53C392.07 183.53 395.42 148.94 415.4 130.55C423.82 122.88 429.54 112.69 431.68 101.5C432.66 96.18 433.15 90.78 433.14 85.37" stroke="#9AB1F3" stroke-opacity="1.000000" stroke-width="2.000000"/>
	<path id="Vector" d="M445.66 73.7C444.15 77.49 432.85 85.72 432.85 85.72C432.85 85.72 430.42 71.96 431.95 68.17C432.68 66.35 434.11 64.9 435.91 64.13C437.72 63.37 439.75 63.35 441.57 64.08C443.39 64.82 444.84 66.25 445.61 68.05C446.38 69.86 446.39 71.9 445.66 73.72L445.66 73.7Z" fill="#587EEC" fill-opacity="1.000000" fill-rule="nonzero"/>
	<path id="Vector" d="M448.53 99.26C445.2 101.61 431.26 102.38 431.26 102.38C431.26 102.38 436.69 89.51 440.03 87.16C440.82 86.57 441.72 86.14 442.68 85.9C443.64 85.67 444.64 85.62 445.62 85.78C446.6 85.93 447.53 86.28 448.37 86.81C449.21 87.33 449.94 88.02 450.5 88.83C451.07 89.64 451.48 90.55 451.68 91.52C451.89 92.49 451.91 93.49 451.72 94.46C451.54 95.43 451.16 96.36 450.62 97.18C450.07 98 449.36 98.71 448.53 99.26L448.53 99.26Z" fill="#587EEC" fill-opacity="1.000000" fill-rule="nonzero"/>
	<path id="Vector" d="M433.6 134.93C429.53 135.27 417.11 128.88 417.11 128.88C417.11 128.88 428.29 120.52 432.36 120.17C434.31 120.01 436.25 120.63 437.75 121.9C439.25 123.16 440.18 124.97 440.35 126.93C440.51 128.88 439.89 130.82 438.63 132.32C437.36 133.82 435.55 134.75 433.6 134.92L433.6 134.93Z" fill="#587EEC" fill-opacity="1.000000" fill-rule="nonzero"/>
	<path id="Vector" d="M416.22 159.37C412.26 160.37 398.95 156.21 398.95 156.21C398.95 156.21 408.55 146.07 412.51 145.04C414.4 144.55 416.42 144.83 418.11 145.83C419.8 146.82 421.03 148.45 421.52 150.35C422.01 152.25 421.73 154.26 420.73 155.95C419.74 157.64 418.12 158.87 416.22 159.37Z" fill="#587EEC" fill-opacity="1.000000" fill-rule="nonzero"/>
	<path id="Vector" d="M416.57 97.31C418.22 101.04 429.77 108.9 429.77 108.9C429.77 108.9 431.74 95.07 430.09 91.33C429.26 89.59 427.79 88.23 425.98 87.56C424.17 86.88 422.17 86.94 420.41 87.72C418.64 88.51 417.25 89.95 416.54 91.74C415.82 93.53 415.83 95.54 416.57 97.32L416.57 97.31Z" fill="#587EEC" fill-opacity="1.000000" fill-rule="nonzero"/>
	<path id="Vector" d="M396.61 126.14C399.3 129.21 412.67 133.23 412.67 133.23C412.67 133.23 410.41 119.45 407.72 116.38C407.08 115.63 406.3 115.02 405.43 114.58C404.55 114.14 403.6 113.87 402.62 113.8C401.65 113.73 400.67 113.86 399.74 114.17C398.81 114.48 397.95 114.98 397.21 115.62C396.48 116.27 395.88 117.06 395.45 117.94C395.02 118.82 394.77 119.78 394.71 120.76C394.66 121.73 394.79 122.71 395.12 123.64C395.44 124.56 395.95 125.41 396.61 126.14Z" fill="#587EEC" fill-opacity="1.000000" fill-rule="nonzero"/>
	<path id="Vector" d="M381.05 156.84C383.18 160.32 395.68 166.54 395.68 166.54C395.68 166.54 395.79 152.58 393.67 149.1C392.61 147.49 390.97 146.35 389.09 145.94C387.22 145.52 385.25 145.85 383.61 146.85C381.98 147.86 380.79 149.47 380.32 151.33C379.85 153.2 380.12 155.17 381.07 156.84L381.05 156.84Z" fill="#587EEC" fill-opacity="1.000000" fill-rule="nonzero"/>
	<path id="Vector" d="M366.38 48.07C367.22 45 368.23 41.91 368.93 38.81C368.09 41.91 367.07 45.01 366.38 48.07Z" fill="url(#paint_linear_4_39_0)" fill-opacity="1.000000" fill-rule="nonzero"/>
	<path id="Vector" d="M362.64 77.63C362.57 77.51 362.52 77.39 362.46 77.27C362.46 77.22 362.41 77.18 362.39 77.13C362.28 77.19 362.17 77.23 362.05 77.27C361.83 77.36 361.6 77.44 361.37 77.5C361.14 77.57 361.05 77.6 360.87 77.64C360.72 77.69 360.57 77.73 360.42 77.76L360.46 77.85C360.65 77.81 360.83 77.77 361.01 77.72L361.07 78.35C361.28 78.35 361.47 78.32 361.66 78.32C361.76 78.31 361.85 78.31 361.94 78.32C362.33 78.32 362.67 78.32 362.94 78.32C362.84 78.09 362.73 77.85 362.64 77.63ZM464.87 240.46C462.51 237.27 457.78 203.04 457.78 203.04C457.78 203.04 448.49 178.69 451.02 168.98C453.56 159.26 444.1 134.4 444.1 134.4C444.1 134.4 437.86 131.68 437.52 127.65C437.52 127.65 412.02 119.59 410.83 113.54C409.86 108.58 394.05 105.03 388.37 103.9C386.63 96.91 384.89 90.38 383.61 86.82C383.26 85.71 382.93 84.75 382.63 84C380.46 78.45 373.75 77.95 368.89 78.39C368.68 77.45 368.28 76.55 367.73 75.76C367.65 75.48 367.49 75.24 367.27 75.06C367.17 74.97 367.06 74.89 366.94 74.82C366.85 74.65 366.74 74.51 366.6 74.38C366.46 74.26 366.31 74.15 366.15 74.06C366.03 74 365.91 73.94 365.78 73.89C365.49 73.78 365.19 73.7 364.88 73.65C364.52 73.57 364.16 73.53 363.79 73.51C364.68 73.12 365.48 72.54 366.12 71.81C366.55 71.3 366.88 70.7 367.07 70.05C367.23 69.52 367.3 68.96 367.28 68.4C367.15 68.63 367 68.85 366.83 69.05C367.04 66.82 365.86 64.55 365.18 62.33C364.37 59.44 364.22 56.39 364.74 53.43C365.42 48.97 367.09 44.45 368.22 39.91C368.22 39.88 368.22 39.86 368.22 39.83C368.82 37.58 369.18 35.26 369.32 32.93C369.52 28.23 368.31 23.54 366.38 19.26C364.66 15.46 362.13 11.73 358.25 10.19C355.37 9.02 352.14 9.21 349.04 9.02C342.08 8.58 335.44 6.14 328.82 3.91C322.21 1.68 315.4 -0.35 308.43 0.04C301.47 0.43 294.3 3.79 291.12 9.96C290.11 11.89 289.54 14.03 288.33 15.84C286.07 19.25 282.04 20.96 278.67 23.31C275.3 25.66 272.33 29 271.11 32.99C270.45 35.14 270.35 37.42 270.84 39.62C270.95 40.11 271.09 40.6 271.26 41.08C271.74 42.41 272.49 43.63 273.45 44.66C274.18 45.42 275.02 46.07 275.94 46.59C277.1 47.23 278.33 47.71 279.62 48.02C279.57 48.17 279.53 48.33 279.48 48.49C279.4 48.75 279.33 48.99 279.25 49.27C279.09 49.89 278.93 50.52 278.8 51.16C278.79 51.2 278.79 51.25 278.8 51.29C278.18 54.16 277.87 57.08 277.87 60.02C277.87 61.4 277.94 62.79 278.08 64.17C280.1 84.62 296.97 100.75 317.81 101.8C318.53 101.83 319.25 101.85 319.98 101.85C320.31 101.85 320.64 101.85 320.99 101.85C321.31 102.29 321.64 102.73 321.94 103.16C322.25 103.6 322.53 104.04 322.8 104.47L322.07 103.72L321.34 103.05C321.14 103.32 320.92 103.57 320.68 103.81C320.2 103.64 319.72 103.5 319.22 103.39C317.13 102.93 313.95 102.76 309.76 104.02C305.91 105.18 301.2 107.55 295.69 112.06L268.84 128.19L254.32 137.03L249.08 149.83C249.08 149.83 245.15 165.03 240.77 182.46C240.6 182.51 240.44 182.56 240.27 182.62C239.92 182.58 239.56 182.56 239.2 182.56C236.66 182.56 234.22 183.53 232.39 185.29C230.55 187.05 229.47 189.45 229.37 191.99C220.67 202.57 220.18 213.15 222.22 218.01C222.41 218.47 222.64 218.9 222.92 219.31C224.26 221.24 226.76 226.23 229.3 231.55C229.23 231.99 229.19 232.35 229.17 232.63C229.17 232.72 229.17 232.81 229.17 232.9C229.17 232.9 230.68 255.74 225.65 262.28C224.54 263.71 224.71 265.58 225.65 267.66C229.02 275.13 242.36 285.1 242.36 285.1C242.36 285.1 258.36 285.01 267.28 284.04C267.25 284.94 267.23 285.83 267.21 286.7C267.01 295.51 267.01 302.89 267.01 302.89L266.68 312.13C266.68 312.13 263.65 331.6 262.14 336.96C261.19 340.33 262.29 371.5 263.25 394.41L420.89 394.41C422.74 380.86 420.13 339.67 420.13 339.67C420.13 339.67 417.65 329.02 417.56 319.74C417.55 319.73 417.55 319.72 417.55 319.71C417.55 319.7 417.55 319.68 417.56 319.67C417.56 318.86 417.56 318.07 417.59 317.3L418.73 317.26L420.79 317.19L420.97 317.19C420.97 317.19 421.02 316.99 421.14 316.68C421.41 315.9 421.78 315.16 422.24 314.48C423.12 313.18 424.49 311.91 426.55 311.83C427.68 311.78 429.45 310.86 431.44 309.5C431.45 309.5 431.46 309.5 431.48 309.5C436.83 305.88 443.91 299.19 445.62 298.09C447.99 296.58 459.3 286.5 459.3 286.5C459.3 286.5 460.98 284.36 462.78 281.79L462.85 281.7C465.08 278.47 467.46 274.62 466.88 273.4C465.87 271.23 467.55 266.02 467.55 266.02C472.8 256.4 467.24 243.65 464.87 240.46ZM367.49 85.46C367.53 85.61 367.57 85.77 367.58 85.93C367.45 85.76 367.33 85.58 367.2 85.42L367.08 85.26L366.99 85.14L367.18 84.88C367.18 84.88 367.18 84.88 367.18 84.91C367.32 85.08 367.42 85.26 367.49 85.46ZM365.79 81C365.25 81.11 364.81 81.21 364.53 81.29C364.17 80.65 363.83 80.02 363.52 79.37C364.33 79.84 365.09 80.39 365.79 81ZM364.85 81.8C364.85 81.79 364.85 81.77 364.85 81.76L364.89 81.8C365.09 81.93 365.3 82.06 365.48 82.2C365.65 82.32 365.8 82.44 365.95 82.56C365.85 82.73 365.74 82.91 365.63 83.06C365.45 82.78 365.29 82.52 365.12 82.24C365.02 82.13 364.93 81.98 364.85 81.8ZM361.83 75.58C362.8 75.48 363.78 75.48 364.75 75.58C364.89 75.58 365.01 75.6 365.13 75.62C365.4 75.66 365.67 75.73 365.93 75.83C366.53 76.66 366.89 77.64 366.99 78.66L366.72 78.7L366.45 78.75C365.95 78.83 365.45 78.92 365.05 79L364.55 79.1C363.88 79.25 363.49 79.36 363.48 79.37C363.41 79.23 363.35 79.1 363.28 78.97C363.17 78.76 363.05 78.53 362.95 78.32C362.85 78.1 362.72 77.85 362.61 77.63C362.54 77.51 362.49 77.39 362.44 77.27C362.44 77.22 362.38 77.18 362.36 77.13C362.34 77.08 362.31 77.02 362.29 76.97C361.98 76.34 361.7 75.72 361.43 75.1C361.4 75.04 361.37 74.98 361.35 74.92L361.73 74.89L361.73 75.02L361.83 75.58ZM241.67 388.18C241.63 380.68 241.08 372.56 239.57 364.94C238.93 361.7 238.26 358.46 237.59 355.28C237.42 354.48 237.25 353.69 237.08 352.91L235.53 353.12L235.39 353.12C231.16 333.15 226.74 315.57 226.74 315.57C226.74 315.57 217.95 282.01 218.97 279.34C219.1 278.99 218.94 278.05 218.56 276.67C216.44 269.04 207.57 248.02 204.46 240.84C204.46 240.8 204.44 240.77 204.43 240.74C203.92 239.54 203.56 238.73 203.45 238.49L204.18 227.77L204.22 227.12L204.32 225.75L204.28 225.72L204.32 225.08C204.32 225.08 196.65 218.79 183.67 214.25C183.16 214.07 182.63 213.9 182.1 213.72C182.75 209.39 183.61 204.49 184.74 199.71C184.84 199.24 184.96 198.77 185.08 198.3C185.18 197.84 185.3 197.38 185.43 196.92C185.62 196.18 185.82 195.44 186.04 194.72C186.74 194.49 187.43 194.25 188.11 193.99L188.37 193.88C196.74 190.62 203.65 184.44 207.82 176.47C211.99 168.5 213.13 159.29 211.03 150.55C209.83 145.59 207.63 140.93 204.54 136.86C204.31 136.55 204.07 136.24 203.82 135.93C203.57 135.63 203.27 135.28 203 134.97C204.45 131.66 206.17 128.51 206.31 125.29C206.34 124.88 206.34 124.47 206.31 124.07L206.31 124.01C206.12 121.94 205.21 119.85 203.07 117.65C199.96 114.41 195.52 112.78 191.08 111.99C186.64 111.2 182.12 111.18 177.66 110.66C170.26 109.77 163.05 107.49 155.66 106.79C146.54 105.94 137.37 107.5 129.05 111.32C123.55 113.84 117.97 118.24 117.64 124.29C117.37 129.28 120.84 134.07 119.96 139C119.09 143.85 114.16 147.66 114.59 152.57C114.76 154.48 115.74 156.2 116.97 157.72C117.39 158.23 117.84 158.73 118.3 159.23C120.1 161.13 122.07 162.96 123.07 165.35C123.11 165.45 123.15 165.55 123.19 165.65C124.04 168.02 123.66 171.01 121.55 172.36C121.56 172.37 121.57 172.38 121.58 172.4C121.61 172.44 121.64 172.47 121.66 172.51C121.66 172.5 121.66 172.49 121.66 172.48C122.41 173.37 123.41 174 124.54 174.28L124.97 174.41C124.62 174.79 124.29 175.18 123.96 175.59L123.74 175.88C123.19 176.63 122.68 177.41 122.23 178.22C121.97 178.68 121.73 179.13 121.52 179.58C120.83 180.97 120.33 182.43 120.04 183.95C119.5 187.29 120.26 190.76 119.44 194.03C118.43 198.06 115.25 201.16 113.45 204.9C110.04 211.96 111.97 220.23 112.66 228.03C113.59 238.61 112.08 249.24 110.57 259.75C109.77 265.34 108.97 270.93 108.17 276.53C106.16 290.59 104.15 304.65 102.13 318.7C101.4 323.85 100.52 329.28 97.09 333.26L97.13 333.26C97.13 333.26 97.13 333.29 97.09 333.3C98.12 333.75 99.22 334.03 100.34 334.14C104.82 334.59 109.56 332.42 113.59 330.05C116.78 328.21 119.8 326.08 122.62 323.71C122.21 325.22 121.76 326.87 121.29 328.64C121.29 328.66 121.29 328.67 121.29 328.69C115.6 350.36 106.46 390.08 106.46 390.08C106.46 390.08 105.63 391.81 104.55 394.39L246.57 394.39C244.91 392.37 243.36 390.44 242.15 388.88L241.67 388.18ZM136.51 187.82C136.54 187.76 136.57 187.71 136.6 187.65C136.6 187.81 136.6 187.97 136.6 188.12C136.6 188.27 136.6 188.41 136.6 188.55C136.6 188.69 136.6 188.67 136.6 188.74C136.6 188.95 136.56 189.16 136.52 189.36C136.52 189.36 136.52 189.39 136.52 189.41L137.03 189.6L137.61 189.84C141.06 191.2 144.56 192.44 148.1 193.54C148.46 193.66 148.83 193.77 149.2 193.87L149.27 194.5C149.36 195.14 149.45 195.79 149.53 196.44C149.53 196.44 149.53 196.47 149.53 196.49C149.75 198.29 149.98 200.08 150.17 201.84C150.17 201.84 140.92 198.31 141.04 203.67C141.04 203.76 141.04 203.86 141.04 203.95C141.03 204.08 141.03 204.21 141.04 204.34C141.13 208.51 142.43 210.98 142.69 212.25C142.68 212.31 142.65 212.35 142.61 212.39C142.39 212.88 142.31 213.42 142.39 213.95C142.38 214.85 142.45 215.75 142.6 216.64C142.33 216.81 142.06 216.97 141.8 217.15C141.6 217.27 141.4 217.41 141.21 217.55C139.97 213.27 138.36 209.1 136.38 205.1C134.99 202.24 133.44 199.27 133.45 196.14C133.45 195.94 133.45 195.73 133.48 195.53C133.53 194.62 133.71 193.72 133.99 192.86C134.11 192.53 134.23 192.21 134.37 191.89C134.7 191.14 135.07 190.4 135.48 189.69C135.74 189.21 136.02 188.74 136.28 188.27C136.37 188.13 136.45 187.98 136.53 187.84L136.51 187.82ZM362.64 77.63C362.57 77.51 362.52 77.39 362.46 77.27C362.46 77.22 362.41 77.18 362.39 77.13C362.28 77.19 362.17 77.23 362.05 77.27C361.83 77.36 361.6 77.44 361.37 77.5C361.14 77.57 361.05 77.6 360.87 77.64L360.42 77.76L360.46 77.85C360.65 77.81 360.83 77.77 361.01 77.72L361.07 78.35C361.28 78.35 361.47 78.32 361.66 78.32L361.94 78.32C362.33 78.32 362.67 78.32 362.94 78.32C362.84 78.09 362.73 77.85 362.64 77.63Z" fill="url(#paint_linear_4_40_0)" fill-opacity="1.000000" fill-rule="nonzero"/>
	<path id="Vector" d="M252.59 151.64L249.57 152.98C249.57 152.98 229.88 229.55 229.88 235.74C229.88 241.92 271.64 276.36 271.64 276.36L278.16 232.34C278.16 232.34 268.8 131.41 252.59 151.64Z" fill="#E8F5FF" fill-opacity="1.000000" fill-rule="nonzero"/>
	<path id="Vector" d="M344.21 127.29L326.76 118.18C325.78 114.01 324.05 110.06 321.64 106.51C319.09 102.82 315.69 99.2 311.46 97.31C300.77 92.51 356.69 67.33 356.69 67.33C357.57 70.36 358.61 73.33 359.8 76.25C362.68 83.37 367.46 92.57 373.62 95.19C384.09 99.65 344.21 127.29 344.21 127.29Z" fill="#FFB0B1" fill-opacity="1.000000" fill-rule="nonzero"/>
	<g opacity="0.100000">
		<path id="Vector" d="M359.8 76.25C357.41 84.66 352.44 92.1 345.59 97.53C338.75 102.96 330.37 106.11 321.64 106.51C319.09 102.82 315.69 99.2 311.46 97.31C300.77 92.51 356.69 67.33 356.69 67.33C357.57 70.36 358.61 73.33 359.8 76.25Z" fill="#000000" fill-opacity="1.000000" fill-rule="nonzero"/>
	</g>
	<path id="Vector" d="M361.37 63.54C361.37 71.78 358.93 79.85 354.35 86.7C349.77 93.56 343.27 98.91 335.65 102.06C328.04 105.22 319.66 106.05 311.58 104.44C303.5 102.83 296.07 98.86 290.24 93.03C284.41 87.2 280.45 79.77 278.84 71.68C277.23 63.59 278.06 55.21 281.21 47.59C284.36 39.97 289.7 33.46 296.56 28.88C303.41 24.3 311.47 21.86 319.71 21.86C325.19 21.83 330.61 22.89 335.68 24.98C340.74 27.06 345.35 30.13 349.22 34.01C353.09 37.88 356.16 42.49 358.25 47.56C360.33 52.63 361.39 58.06 361.37 63.54Z" fill="#FFB0B1" fill-opacity="1.000000" fill-rule="nonzero"/>
	<path id="Vector" d="M367.38 121.94L356.02 148.47L346 166.07L313.92 166.07L304.56 142L308.35 117.04L332.85 117.04L348.67 116.14L354.01 114.36L357.46 116.31L367.38 121.94Z" fill="#575A89" fill-opacity="1.000000" fill-rule="nonzero"/>
	<g opacity="0.100000">
		<path id="Vector" d="M363.47 86.58C363.47 86.58 370.55 88.09 364.21 93.29C357.86 98.5 335.97 115.05 335.97 115.05C335.97 115.05 343.66 121.91 342.07 129.94L367.55 115.73L372.08 92.99C372.08 92.99 372.59 86.15 363.47 86.58Z" fill="#000000" fill-opacity="1.000000" fill-rule="nonzero"/>
	</g>
	<g opacity="0.100000">
		<path id="Vector" d="M340.98 115.05L324.77 117.73C324.77 117.73 328.12 130.1 326.45 133.61C326.4 133.72 326.35 133.84 326.32 133.95L319.71 151.84L324.66 165.88L341.82 142.47L335.97 133.61C335.97 133.61 342.15 125.42 345.83 122.58C349.5 119.74 340.98 115.05 340.98 115.05Z" fill="#000000" fill-opacity="1.000000" fill-rule="nonzero"/>
	</g>
	<path id="Vector" d="M340.98 114.36L324.77 117.04C324.77 117.04 328.12 129.41 326.45 132.92C326.4 133.03 326.35 133.14 326.32 133.26L319.71 151.14L324.66 165.19L341.82 141.76L335.97 132.9C335.97 132.9 342.15 124.71 345.83 121.87C349.5 119.03 340.98 114.36 340.98 114.36Z" fill="#DCE6F2" fill-opacity="1.000000" fill-rule="nonzero"/>
	<path id="Vector" d="M364.15 85.24C364.15 85.24 371.23 86.75 364.88 91.96C358.53 97.16 335.97 115.05 335.97 115.05C335.97 115.05 344.32 120.57 342.74 128.6L368.22 114.39L372.75 91.65C372.75 91.65 373.25 84.82 364.15 85.24Z" fill="#575A89" fill-opacity="1.000000" fill-rule="nonzero"/>
	<g opacity="0.100000">
		<path id="Vector" d="M322.75 108.09C322.75 108.09 324.3 110.98 331.12 116.2C331.12 116.2 319.76 122.25 324.11 130.75L306.73 126.21L304.05 117.85L322.75 108.09Z" fill="#000000" fill-opacity="1.000000" fill-rule="nonzero"/>
	</g>
	<path id="Vector" d="M322.08 107.43C322.08 107.43 323.63 110.32 330.45 115.53C330.45 115.53 319.09 121.55 323.44 130.08L306.06 125.54L303.39 117.19L322.08 107.43Z" fill="#575A89" fill-opacity="1.000000" fill-rule="nonzero"/>
	<g opacity="0.100000">
		<path id="Vector" d="M367.38 121.94L356.02 148.47L346.02 166.07L313.92 166.07L304.56 142L308.35 117.04L315.16 117.04C315.05 122.86 317.17 129.7 317.04 132.25C316.81 136.43 323.27 159 323.27 159C323.27 159 336.81 137.1 342.15 135.15C345.51 133.92 352.62 123.73 357.45 116.31L367.38 121.94Z" fill="#000000" fill-opacity="1.000000" fill-rule="nonzero"/>
	</g>
	<path id="Vector" d="M412.14 261.53L410.98 262.98C410.98 262.98 419.34 304.94 417.03 314.47C416.64 316.19 416.41 317.94 416.36 319.7L416.36 319.78C415.95 329.48 418.88 342.06 418.88 342.06C418.88 342.06 421.21 379.15 419.88 394.4L263.45 394.4C262.53 371.85 261.54 342.62 262.44 339.38C263.95 334.04 266.97 314.64 266.97 314.64L267.31 305.45C267.31 305.45 267.31 296.56 267.58 286.67C267.69 282.22 267.86 277.55 268.11 273.4C268.43 268.19 268.87 263.8 269.48 261.65C269.86 260.01 270.07 258.35 270.13 256.67C270.13 256.51 270.13 256.35 270.16 256.19C270.16 255.69 270.21 255.14 270.23 254.58C270.23 254.43 270.23 254.27 270.23 254.08C270.32 250.83 270.29 246.98 270.18 242.99C270.18 242.78 270.18 242.55 270.18 242.33C270.1 239.34 269.97 236.28 269.83 233.38C269.39 224.31 268.82 216.64 268.82 216.64L249.61 152.95L254.79 140.19L269.15 131.38L295.72 115.33C308.68 104.67 317.21 105.95 320.46 107.12C320.78 107.23 321.09 107.35 321.39 107.5C321.49 107.55 321.57 107.59 321.65 107.63C321.75 107.68 321.85 107.74 321.94 107.8C321.05 108.23 320.28 108.87 319.69 109.66C319.02 110.56 318.55 111.59 318.29 112.69C318.12 113.36 318 114.05 317.93 114.75C317.87 115.48 317.84 116.23 317.84 117C317.88 118.66 318.02 120.33 318.27 121.98C318.27 122.01 318.27 122.05 318.27 122.09C318.44 123.27 318.64 124.42 318.85 125.51C318.84 125.52 318.84 125.54 318.85 125.56C319.08 126.83 319.31 128 319.47 129C319.5 129.19 319.52 129.35 319.55 129.51C319.66 130.17 319.71 130.85 319.7 131.52C319.76 133.15 319.98 134.77 320.36 136.36C320.49 137.03 320.64 137.74 320.81 138.48C321.03 139.49 321.28 140.58 321.54 141.7C321.69 142.32 321.85 142.95 322.01 143.58C322.07 143.83 322.13 144.09 322.2 144.34L322.3 144.74C323.37 149.01 324.53 153.26 325.25 155.83C325.67 157.34 325.94 158.27 325.94 158.27C325.94 158.27 333.52 146 339.58 139.02C339.67 138.92 339.75 138.82 339.83 138.73C340.43 138.04 341.02 137.41 341.58 136.85C342.82 135.63 343.93 134.75 344.82 134.42C345.01 134.36 345.19 134.27 345.37 134.17C347.85 132.76 351.84 127.66 355.59 122.31C355.95 121.81 356.31 121.26 356.67 120.74C357.5 119.54 358.31 118.34 359.07 117.18C359.66 116.3 360.21 115.44 360.74 114.63C363.26 110.71 365.03 107.78 365.03 107.78L368.53 107.63L369.14 107.6L369.55 107.6L385.42 106.86C385.42 106.86 386.1 106.98 387.23 107.2C387.29 107.2 387.35 107.2 387.41 107.24C393.05 108.36 408.69 111.91 409.64 116.82C410.81 122.84 436.04 130.86 436.04 130.86C436.38 134.89 442.56 137.55 442.56 137.55C442.56 137.55 451.91 162.29 449.41 171.99C446.94 181.56 455.85 205.25 456.08 205.91L454.38 208.07L412.14 261.53Z" fill="#E8F5FF" fill-opacity="1.000000" fill-rule="nonzero"/>
	<g opacity="0.100000">
		<path id="Vector" d="M363.46 84.82C363.46 84.82 378.91 80.43 382.42 89.46C385.93 98.49 393.78 134.93 393.78 134.93C393.78 134.93 373.39 138.78 368.05 134.93C364.92 132.65 361.04 131.64 357.19 132.09L345.66 139.95L342.25 138.94C342.25 138.94 360.7 111.51 364.71 102.18C368.72 92.86 370.07 88.69 363.46 84.82Z" fill="#000000" fill-opacity="1.000000" fill-rule="nonzero"/>
	</g>
	<path id="Vector" d="M362.79 82.8C362.79 82.8 378.25 78.42 381.77 87.44C385.3 96.47 393.14 132.92 393.14 132.92C393.14 132.92 372.75 136.76 367.41 132.92C364.27 130.64 360.4 129.62 356.55 130.08L345.01 137.93L341.61 136.92C341.61 136.92 360.05 109.49 364.06 100.17C368.07 90.85 369.4 86.69 362.79 82.8Z" fill="#E8F5FF" fill-opacity="1.000000" fill-rule="nonzero"/>
	<g opacity="0.100000">
		<path id="Vector" d="M259.11 228.21C259.11 228.21 270.64 231.05 272.82 237.57C274.99 244.1 264.29 244.26 264.29 244.26C264.29 244.26 257.78 232.73 259.11 228.21Z" fill="#000000" fill-opacity="1.000000" fill-rule="nonzero"/>
	</g>
	<g opacity="0.100000">
		<path id="Vector" d="M302.05 276.36C302.05 276.36 273.82 334.2 280.33 339.72C286.85 345.24 302.05 276.36 302.05 276.36Z" fill="#000000" fill-opacity="1.000000" fill-rule="nonzero"/>
	</g>
	<g opacity="0.100000">
		<path id="Vector" d="M340.98 233.73C340.98 233.73 363.54 289.92 359.03 298.6C354.51 307.27 368.72 298.6 368.72 298.6L340.98 233.73Z" fill="#000000" fill-opacity="1.000000" fill-rule="nonzero"/>
	</g>
	<path id="Vector" d="M372.39 289.23C372.39 289.23 296.2 292.91 318.43 316.65C340.65 340.39 386.26 317.66 386.26 317.66L372.39 289.23Z" fill="#FFB0B1" fill-opacity="1.000000" fill-rule="nonzero"/>
	<g opacity="0.100000">
		<path id="Vector" d="M361.37 63.54C361.37 69.01 360.3 74.42 358.21 79.47C357.51 79.55 356.81 79.6 356.13 79.63C355.13 77.42 355.67 74.87 355.69 72.43C355.71 70 354.81 67.14 352.47 66.48C347.8 65.17 344.58 73.9 339.97 72.32C336.45 71.12 337.37 65.77 335.34 62.68C333.73 60.24 330.52 59.55 328.01 58.01C322.69 54.74 322.85 49.51 320.38 44.56C317.79 39.38 312.32 40.91 307.57 43.97C303.96 46.3 300.85 49.42 296.99 51.27C293.65 52.88 289.9 53.47 286.2 53.56C283.92 53.64 281.64 53.4 279.43 52.84C282.03 43.06 288.1 34.56 296.5 28.93C304.9 23.29 315.06 20.91 325.09 22.22C335.12 23.53 344.33 28.44 351 36.04C357.68 43.65 361.36 53.42 361.36 63.54L361.37 63.54Z" fill="#000000" fill-opacity="1.000000" fill-rule="nonzero"/>
	</g>
	<path id="Vector" d="M307.59 42.64C303.97 44.96 300.87 48.08 297.01 49.94C293.67 51.55 289.92 52.13 286.22 52.22C281.68 52.32 276.8 51.52 273.71 48.25C270.86 45.23 270.18 40.57 271.38 36.61C272.59 32.64 275.47 29.35 278.86 26.97C282.25 24.58 286.19 22.94 288.43 19.52C289.62 17.72 290.2 15.59 291.18 13.67C294.34 7.53 301.44 4.21 308.31 3.79C315.17 3.38 321.97 5.42 328.51 7.64C335.05 9.86 341.64 12.3 348.54 12.76C351.61 12.95 354.8 12.76 357.65 13.92C361.48 15.48 364 19.2 365.71 22.99C367.63 27.27 368.82 31.93 368.62 36.6C368.2 46.56 361.62 56.34 364.51 65.88C365.28 68.43 366.71 71.04 365.95 73.58C364.83 77.3 360.04 78.14 356.17 78.32C355.16 76.11 355.7 73.55 355.72 71.12C355.74 68.69 354.84 65.82 352.5 65.17C347.83 63.86 344.61 72.58 340.01 71.01C336.51 69.8 337.42 64.46 335.39 61.37C333.78 58.92 330.56 58.23 328.06 56.7C322.73 53.43 322.9 48.2 320.42 43.25C317.81 38.04 312.34 39.57 307.59 42.64Z" fill="#575A89" fill-opacity="1.000000" fill-rule="nonzero"/>
	<path id="Vector" d="M233.71 234.39L229.87 235.74C229.87 235.74 231.38 258.47 226.34 264.99C221.3 271.51 242.88 287.73 242.88 287.73C242.88 287.73 272.45 287.56 273.29 285.21C274.12 282.85 271.78 243.08 271.78 243.08C271.78 243.08 255.9 236.89 257.24 227.03C257.24 227.03 252.39 250.26 245.21 249.26C238.03 248.26 229.88 242.26 233.71 234.39Z" fill="#E8F5FF" fill-opacity="1.000000" fill-rule="nonzero"/>
	<g opacity="0.100000">
		<path id="Vector" d="M256.66 247.02C256.66 252.14 252.12 256.29 246.53 256.29C240.93 256.29 236.39 252.14 236.39 247.02C236.39 241.89 240.93 237.74 246.53 237.74C252.12 237.74 256.66 241.89 256.66 247.02Z" fill="#000000" fill-opacity="1.000000" fill-rule="evenodd"/>
	</g>
	<path id="Vector" d="M257.61 235.07C257.61 235.07 255.6 173.55 238.06 187.25C220.52 200.96 220.35 217.35 223.69 222.19C227.03 227.04 237.74 251.28 237.74 251.28C239.41 252.25 241.29 252.81 243.23 252.92C245.16 253.02 247.09 252.66 248.86 251.88C250.63 251.09 252.18 249.9 253.4 248.39C254.62 246.89 255.47 245.11 255.87 243.22L257.61 235.07Z" fill="#FFB0B1" fill-opacity="1.000000" fill-rule="nonzero"/>
	<g opacity="0.100000">
		<path id="Vector" d="M367 79.24C366.92 78.96 366.76 78.72 366.55 78.54C365.68 77.75 363.82 77.47 361.01 77.71L361.13 79.04C364.87 78.72 365.61 79.47 365.71 79.59L365.71 79.72L365.82 79.89C366.29 80.51 366.62 81.23 366.8 82C366.97 82.76 366.98 83.55 366.83 84.32C366.01 88.43 360.97 91.7 360.92 91.73L360.8 91.8L360.72 91.92C358.55 95.15 346.24 104.27 343.03 106.62L342.74 106.3C341.3 107.55 328.64 118.64 327.96 122.89C327.51 125.56 324.51 126.59 323.42 126.88C322.28 126.01 318.55 123.04 316.61 119.71C314.79 116.58 322.11 110.47 322.75 108.09L321.75 107.06C321.64 107.44 312.24 116.23 314.86 120.72C316.95 124.32 320.78 127.41 322.12 128.42C321.69 132.31 319.03 155.16 314.93 160.57C309.85 167.3 305.57 201.2 306.04 213.04C306.46 223.56 303.72 243.42 294.55 251.95C292.96 253.49 291.05 254.66 288.95 255.35C286.85 256.05 284.62 256.27 282.43 255.98L282.32 255.98L282.21 255.98C282.08 255.98 268.78 257.34 257.61 247.92C248.47 240.23 243.29 227.67 242.21 210.58L241.99 210.58L241.9 205.61C244.38 205.22 246.61 203.89 248.13 201.89C249.65 199.89 250.33 197.38 250.04 194.89C249.74 192.4 248.49 190.12 246.55 188.52C244.61 186.93 242.13 186.16 239.63 186.36C237.13 186.56 234.81 187.72 233.15 189.6C231.48 191.48 230.61 193.93 230.72 196.44C230.83 198.95 231.9 201.31 233.72 203.05C235.53 204.78 237.95 205.74 240.46 205.73L240.57 205.73L240.66 210.67L240.22 210.7C241.32 228.34 246.76 241.38 256.33 249.44C263.6 255.47 272.89 258.51 282.32 257.95C282.99 258.03 283.66 258.06 284.34 258.06C288.66 258.09 292.82 256.41 295.92 253.4C305.57 244.41 308.51 223.81 308.05 212.94C307.55 200.4 312.04 167.71 316.54 161.76C320.95 155.92 323.63 133.16 324.09 128.75C325.69 128.3 329.3 126.89 329.92 123.21C330.36 120.55 338.81 112.35 344.02 107.81L343.86 107.63C346.66 105.58 355.37 99.13 359.69 94.99C361.02 93.7 362.35 92.42 363.74 91.19C365.42 89.71 367.54 87.36 368.1 84.58C368.29 83.66 368.29 82.71 368.1 81.79C367.91 80.87 367.54 80 367 79.24Z" fill="#000000" fill-opacity="1.000000" fill-rule="nonzero"/>
	</g>
	<path id="Vector" d="M321.95 128.11C321.74 127.96 316.72 124.37 314.21 120.04C311.6 115.55 321 106.77 321.1 106.39L322.1 107.42C321.47 109.8 314.15 115.91 315.97 119.04C318.26 122.98 323.08 126.43 323.13 126.47L321.95 128.11Z" fill="#353146" fill-opacity="1.000000" fill-rule="nonzero"/>
	<path id="Vector" d="M342.37 107.6L341.59 106.52C341.75 106.4 357.57 94.95 360.06 91.25L360.14 91.14L360.25 91.06C360.3 91.03 365.35 87.76 366.17 83.65C366.32 82.88 366.31 82.09 366.13 81.33C365.96 80.56 365.63 79.85 365.16 79.22L365.04 79.05L365.04 78.93C364.94 78.8 364.2 78.06 360.46 78.38L360.34 77.04C363.16 76.8 365.01 77.08 365.88 77.87C366.1 78.06 366.25 78.3 366.34 78.57C366.88 79.34 367.26 80.21 367.46 81.13C367.66 82.05 367.66 83 367.48 83.92C366.92 86.7 364.8 89.06 363.12 90.53C361.74 91.76 360.4 93.05 359.07 94.33C354 99.18 342.92 107.2 342.37 107.6Z" fill="#E8F5FF" fill-opacity="1.000000" fill-rule="nonzero"/>
	<path id="Vector" d="M239.92 203.88L241.25 203.86L241.4 211.97L240.07 212L239.92 203.88Z" fill="#E8F5FF" fill-opacity="1.000000" fill-rule="evenodd"/>
	<path id="Vector" d="M249.55 195.34C249.55 200.72 245.19 205.09 239.81 205.09C234.43 205.09 230.06 200.72 230.06 195.34C230.06 189.95 234.43 185.58 239.81 185.58C245.19 185.58 249.55 189.95 249.55 195.34Z" fill="#587EEC" fill-opacity="1.000000" fill-rule="evenodd"/>
	<path id="Vector" d="M247.9 195.34C247.9 199.81 244.28 203.43 239.81 203.43C235.34 203.43 231.71 199.81 231.71 195.34C231.71 190.86 235.34 187.24 239.81 187.24C244.28 187.24 247.9 190.86 247.9 195.34Z" fill="#E8F5FF" fill-opacity="1.000000" fill-rule="evenodd"/>
	<path id="Vector" d="M283.7 257.41C283.03 257.42 282.36 257.38 281.69 257.31C272.26 257.86 262.97 254.82 255.7 248.8C246.13 240.73 240.7 227.7 239.58 210.05L241.6 209.92C242.67 227.01 247.85 239.57 257 247.26C268.17 256.66 281.46 255.32 281.59 255.32L281.7 255.32L281.81 255.32C284 255.61 286.23 255.39 288.33 254.69C290.43 253.99 292.35 252.83 293.94 251.29C303.1 242.76 305.84 222.9 305.42 212.38C304.92 200.53 309.2 166.63 314.29 159.9C318.75 154.01 321.51 127.46 321.54 127.19L321.62 126.44L322.36 126.31C322.41 126.31 326.76 125.48 327.3 122.23C328.01 117.98 340.65 106.89 342.08 105.64L343.4 107.15C338.18 111.68 329.72 119.89 329.3 122.55C328.68 126.24 325.07 127.65 323.48 128.1C322.98 132.51 320.32 155.26 315.93 161.1C311.42 167.06 306.94 199.74 307.44 212.28C307.87 223.16 304.97 243.76 295.31 252.75C292.2 255.77 288.03 257.44 283.7 257.41Z" fill="#353146" fill-opacity="1.000000" fill-rule="nonzero"/>
	<g opacity="0.100000">
		<g opacity="0.100000">
			<path id="Vector" d="M365.66 51.63C366.48 48.57 367.48 45.5 368.18 42.4C367.35 45.51 366.34 48.57 365.66 51.63Z" fill="#000000" fill-opacity="1.000000" fill-rule="nonzero"/>
		</g>
		<g opacity="0.100000">
			<path id="Vector" d="M357.23 75.62C356.23 73.41 356.76 70.85 356.78 68.42C356.8 65.99 355.91 63.15 353.57 62.47C348.9 61.16 345.67 69.89 341.08 68.31C337.56 67.11 338.49 61.76 336.45 58.67C334.85 56.22 331.63 55.54 329.13 54C323.8 50.73 323.96 45.5 321.5 40.55C318.9 35.36 313.44 36.9 308.68 39.96C305.07 42.29 301.96 45.41 298.11 47.27C294.77 48.87 291.02 49.46 287.31 49.54C282.81 49.65 277.9 48.85 274.8 45.57C272.42 43.05 271.56 39.36 272.05 35.9C271.96 36.13 271.89 36.37 271.81 36.61C270.6 40.57 271.31 45.24 274.13 48.25C277.23 51.52 282.14 52.32 286.64 52.22C290.35 52.13 294.1 51.55 297.44 49.94C301.31 48.08 304.42 44.96 308.02 42.64C312.77 39.57 318.24 38.04 320.83 43.23C323.3 48.18 323.14 53.41 328.47 56.68C330.98 58.19 334.18 58.9 335.79 61.35C337.81 64.44 336.92 69.78 340.42 70.99C345.01 72.56 348.23 63.84 352.91 65.15C355.24 65.8 356.14 68.67 356.12 71.1C356.09 73.52 355.57 76.09 356.57 78.3C360.44 78.12 365.23 77.29 366.35 73.56C366.51 73.03 366.58 72.47 366.56 71.91C364.93 74.74 360.72 75.47 357.23 75.62Z" fill="#000000" fill-opacity="1.000000" fill-rule="nonzero"/>
		</g>
	</g>
	<g opacity="0.100000">
		<path id="Vector" d="M448.25 199.79L454.1 205.98C454.1 205.98 458.78 240.08 461.12 243.27C463.45 246.46 468.97 259.15 463.79 268.68C463.79 268.68 462.12 273.86 463.12 276.03C464.12 278.21 455.61 289.08 455.61 289.08C455.61 289.08 444.41 299.1 442.07 300.61C439.73 302.12 427.37 314.15 423.19 314.32C419.02 314.48 417.65 319.67 417.65 319.67L394.09 320.51C394.09 320.51 381.08 319.82 378.25 321.67C378.25 321.67 379.76 301.77 365.22 288.73L383.76 282.04C383.76 282.04 390.78 279.02 392.95 275.86C394.32 273.92 396.26 272.46 398.49 271.68C398.49 271.68 403.67 268 403.84 266C404 263.99 410.17 261.53 410.17 261.53L406.68 231.72L408.52 182.24C408.52 182.24 414.36 140.78 426.73 143.12C439.09 145.46 448.25 199.79 448.25 199.79Z" fill="#000000" fill-opacity="1.000000" fill-rule="nonzero"/>
	</g>
	<path id="Vector" d="M450.27 199.79L456.11 205.98C456.11 205.98 460.79 240.08 463.13 243.27C465.47 246.46 470.99 259.15 465.8 268.68C465.8 268.68 464.14 273.86 465.14 276.03C466.14 278.21 457.62 289.08 457.62 289.08C457.62 289.08 446.42 299.1 444.08 300.61C441.74 302.12 429.38 314.15 425.21 314.32C421.03 314.48 419.67 319.67 419.67 319.67L396.11 320.51C396.11 320.51 383.08 319.82 380.26 321.67C380.26 321.67 381.77 301.77 367.23 288.73L385.78 282.04C385.78 282.04 392.8 279.02 394.97 275.86C396.33 273.92 398.27 272.46 400.51 271.68C400.51 271.68 405.69 268 405.85 266C406.02 263.99 412.18 261.53 412.18 261.53L408.69 231.72L410.53 182.24C410.53 182.24 416.38 140.78 428.74 143.12C441.11 145.46 450.27 199.79 450.27 199.79Z" fill="#E8F5FF" fill-opacity="1.000000" fill-rule="nonzero"/>
	<g opacity="0.100000">
		<path id="Vector" d="M428.53 249.78C428.53 249.78 445.74 245.24 450.25 250.79C454.76 256.33 428.53 249.78 428.53 249.78Z" fill="#000000" fill-opacity="1.000000" fill-rule="nonzero"/>
	</g>
	<g opacity="0.100000">
		<path id="Vector" d="M424.52 257.38C430.37 261.48 448.41 261.65 448.41 261.65L424.52 257.38Z" fill="#000000" fill-opacity="1.000000" fill-rule="nonzero"/>
	</g>
	<g opacity="0.100000">
		<path id="Vector" d="M433.38 277.86C433.88 278.03 445.78 290.74 450.78 286.89C455.77 283.05 433.38 277.86 433.38 277.86Z" fill="#000000" fill-opacity="1.000000" fill-rule="nonzero"/>
	</g>
	<g opacity="0.100000">
		<path id="Vector" d="M273.1 171.2C273.1 171.2 276.6 195.28 274.87 205.09C273.15 214.89 279.44 227.04 279.44 227.04L273.1 171.2Z" fill="#000000" fill-opacity="1.000000" fill-rule="nonzero"/>
	</g>
	<path id="Vector" d="M195.73 180.99C191.7 184.15 188.75 191.63 186.62 199.85C182.91 214.19 181.69 230.81 181.69 230.81C181.69 230.81 149.61 223.45 151.95 220.11C153.42 218.01 151.45 202.18 149.8 190.7C148.82 183.92 147.94 178.65 147.94 178.65C147.94 178.65 206.75 172.3 195.73 180.99Z" fill="#FFB0B1" fill-opacity="1.000000" fill-rule="nonzero"/>
	<g opacity="0.100000">
		<path id="Vector" d="M195.73 180.32C191.7 183.49 188.75 190.96 186.62 199.18C180.23 201.12 173.43 201.3 166.95 199.69C160.47 198.08 154.54 194.74 149.8 190.03C148.82 183.25 147.94 177.98 147.94 177.98C147.94 177.98 206.75 171.63 195.73 180.32Z" fill="#000000" fill-opacity="1.000000" fill-rule="nonzero"/>
	</g>
	<path id="Vector" d="M212.97 162.31C212.97 171.08 209.88 179.56 204.23 186.26C198.58 192.96 190.75 197.45 182.11 198.93C173.48 200.4 164.6 198.78 157.05 194.33C149.5 189.89 143.76 182.92 140.86 174.65C137.95 166.38 138.06 157.35 141.17 149.15C144.28 140.96 150.18 134.13 157.84 129.87C165.49 125.61 174.41 124.21 183.01 125.89C191.6 127.58 199.32 132.25 204.81 139.09C210.09 145.68 212.97 153.87 212.97 162.31Z" fill="#FFB0B1" fill-opacity="1.000000" fill-rule="nonzero"/>
	<g opacity="0.100000">
		<path id="Vector" d="M242.22 394.4L231.64 394.4L230.75 375.71L229.82 356.37C229.82 356.37 232.22 356.01 236.05 355.47L237.6 355.27L237.72 355.27C238.56 359.19 239.38 363.22 240.18 367.25C241.5 374.4 242.19 381.65 242.24 388.92C242.24 389.42 242.24 389.93 242.24 390.4C242.27 391.75 242.24 393.09 242.22 394.4Z" fill="#000000" fill-opacity="1.000000" fill-rule="nonzero"/>
	</g>
	<path id="Vector" d="M240.19 394.4L107.56 394.4C108.13 393.1 108.51 392.31 108.51 392.31C108.51 392.31 119.12 345.85 124.52 326.2C124.52 326.18 124.52 326.17 124.52 326.15C125.19 323.48 126 320.85 126.95 318.26C127.02 318.09 127.1 317.92 127.19 317.76C129.86 313.42 133.2 308.73 128.53 302.05C123.85 295.36 125.5 265.94 125.5 265.94C125.5 265.94 131.19 240.86 137.2 227.48C138.11 225.41 139.41 223.53 141.02 221.94C141.54 221.43 142.1 220.95 142.69 220.52C143.14 220.18 143.6 219.87 144.09 219.58L144.18 219.52C146.71 218.09 149.52 217.22 152.41 216.97C154.46 216.75 156.54 216.81 158.58 217.14C168.33 218.57 176.13 220.97 182.34 223.69C199.15 231.08 204.25 240.99 204.35 241.2L204.39 241.28C205.06 242.86 214.93 265.92 218.49 276.68C219.41 279.48 219.91 281.45 219.71 281.99C218.71 284.66 227.4 318.1 227.4 318.1C227.4 318.1 231.43 334.22 235.46 353.13C235.63 353.91 235.8 354.7 235.96 355.49C236.68 358.93 237.39 362.42 238.08 365.92C239.42 373.11 240.11 380.41 240.14 387.74C240.22 390.02 240.23 392.24 240.19 394.4Z" fill="#EB5569" fill-opacity="1.000000" fill-rule="nonzero"/>
	<g opacity="0.100000">
		<path id="Vector" d="M151.62 205.47C151.62 205.47 142.47 201.94 142.58 207.29C142.69 212.65 144.81 215.21 144.14 215.99C143.47 216.77 144.47 221.45 144.47 221.45C144.47 221.45 156.84 221.45 162.52 224.01C168.2 226.57 189.14 231.7 191.81 233.26C194.49 234.82 204.4 241.83 204.4 241.83L205.29 228.56C205.29 228.56 195.05 220.09 178.23 215.75C161.41 211.41 151.62 205.47 151.62 205.47Z" fill="#000000" fill-opacity="1.000000" fill-rule="nonzero"/>
	</g>
	<path id="Vector" d="M151.62 204.8C151.62 204.8 142.47 201.27 142.58 206.62C142.69 211.98 144.81 214.54 144.14 215.32C143.47 216.1 144.47 220.78 144.47 220.78C144.47 220.78 156.84 220.78 162.52 223.34C168.2 225.91 189.14 231.03 191.81 232.59C194.49 234.15 204.4 241.16 204.4 241.16L205.3 227.93C205.3 227.93 195.06 219.46 178.24 215.12C161.42 210.78 151.62 204.8 151.62 204.8Z" fill="#EB5569" fill-opacity="1.000000" fill-rule="nonzero"/>
	<g opacity="0.100000">
		<path id="Vector" d="M179.24 236.72C179.24 236.72 196.73 255.66 195.84 260.91C194.94 266.15 179.24 236.72 179.24 236.72Z" fill="#000000" fill-opacity="1.000000" fill-rule="nonzero"/>
	</g>
	<g opacity="0.100000">
		<path id="Vector" d="M150.84 305.15C150.84 305.15 138.02 316.96 134.24 317.63C130.47 318.3 137.14 320.53 141.48 318.75C145.82 316.97 155.08 312.29 155.08 312.29L150.84 305.15Z" fill="#000000" fill-opacity="1.000000" fill-rule="nonzero"/>
	</g>
	<path id="Vector" d="M245.4 394.4L215.51 394.4C211.33 390.77 207.37 387.41 204.86 385.39C200.83 382.16 197.92 377.39 196.07 373.56C195.65 372.69 195.29 371.88 194.98 371.14C194.43 369.86 193.95 368.56 193.53 367.23L215.66 354.08C216.89 355.12 218.04 356.24 219.1 357.44L219.37 357.75C220.6 359.2 221.68 360.85 221.78 362.2C221.89 363.77 226.26 369.86 230.73 375.7C235.26 381.64 239.9 387.32 240.21 387.7C240.21 387.7 240.98 388.74 242.22 390.35C243.11 391.5 244.19 392.9 245.4 394.4Z" fill="#FFB0B1" fill-opacity="1.000000" fill-rule="nonzero"/>
	<g opacity="0.100000">
		<path id="Vector" d="M204.81 139.09C203.74 141.49 202.79 143.98 202.65 146.65C202.25 154.36 202.9 171.6 194.37 175.47C190.14 177.38 185.62 173.19 180.98 173.09C177.65 173.02 174.59 175.14 172.56 177.78C170.52 180.43 169.26 183.57 167.78 186.56C166.44 189.28 164.89 191.89 163.16 194.37C162.64 195.13 162.06 195.86 161.44 196.53C156.24 194.34 151.61 190.98 147.9 186.72C144.19 182.46 141.5 177.41 140.04 171.96C138.57 166.5 138.37 160.78 139.45 155.24C140.53 149.69 142.86 144.47 146.27 139.96C149.67 135.45 154.06 131.78 159.1 129.23C164.13 126.67 169.68 125.3 175.33 125.22C180.98 125.14 186.57 126.35 191.67 128.75C196.78 131.16 201.27 134.71 204.81 139.11L204.81 139.09Z" fill="#000000" fill-opacity="1.000000" fill-rule="nonzero"/>
	</g>
	<path id="Vector" d="M201.98 145.29C201.58 153 202.23 170.24 193.69 174.11C189.46 176.01 184.94 171.83 180.31 171.73C176.98 171.66 173.92 173.78 171.88 176.42C169.84 179.06 168.59 182.2 167.11 185.2C165.77 187.92 164.22 190.53 162.48 193.01C161.44 194.48 160.29 195.96 158.7 196.79C155.92 198.24 152.55 197.42 149.57 196.49C145.7 195.27 141.89 193.9 138.14 192.37C138.22 191.8 138.27 191.23 138.27 190.65C138.16 190.87 138.03 191.06 137.91 191.27L137.68 191.69C137.25 192.44 136.83 193.2 136.45 193.97C136.3 194.27 136.16 194.58 136.03 194.89C135.53 196.03 135.21 197.25 135.09 198.5C134.84 201.86 136.49 205.05 137.96 208.07C143.62 219.77 147.12 233.44 142.86 245.71C141.02 251.05 137.82 255.79 135.49 260.95C131.42 270.08 130.22 280.23 132.05 290.06C133.22 296.17 135.55 302.22 134.97 308.41C133.97 319.07 124.78 327 115.58 332.45C110.61 335.39 104.52 338 99.25 335.68C102.61 331.75 103.48 326.31 104.2 321.18C106.19 307.19 108.17 293.19 110.17 279.18C110.96 273.61 111.76 268.04 112.55 262.46C114.03 251.99 115.53 241.4 114.61 230.87C113.93 223.1 112.03 214.86 115.39 207.83C117.17 204.1 120.34 201.02 121.32 197.01C122.14 193.75 121.38 190.28 121.91 186.96C122.21 185.45 122.7 183.98 123.38 182.61C124.25 180.74 125.39 179 126.76 177.46C125.41 177.06 124.15 176.52 123.38 175.4C125.55 173.98 125.88 170.8 124.9 168.42C123.91 166.03 121.95 164.21 120.18 162.32C118.41 160.44 116.71 158.24 116.49 155.67C116.06 150.78 120.95 146.99 121.81 142.16C122.68 137.25 119.23 132.47 119.51 127.5C119.83 121.48 125.35 117.12 130.8 114.58C139.03 110.77 148.11 109.21 157.13 110.05C164.48 110.74 171.58 113.01 178.9 113.9C183.32 114.4 187.8 114.45 192.18 115.23C196.57 116 200.97 117.64 204.06 120.86C212.19 129.35 202.44 136.34 201.98 145.29Z" fill="#575A89" fill-opacity="1.000000" fill-rule="nonzero"/>
	<g opacity="0.100000">
		<path id="Vector" d="M195.17 373.57C192.6 372.46 187.93 373.12 179.91 370.68C171.88 368.23 170.34 357.19 170.34 357.19L170.34 357.15C170.24 356.9 169.5 355.26 164.45 349.5C158.87 343.15 146.82 311.05 146.82 311.05C146.82 311.05 136.14 299.57 136.47 295.33C136.81 291.1 134.57 279.84 134.8 267.24C135.02 254.64 158.85 246.29 158.85 246.29C204.75 238.15 193.94 291.09 192.72 295.1C191.49 299.11 197.85 309.95 197.85 309.95C196.95 314.67 201.52 321.97 201.52 321.97C201.52 321.97 202.63 328.43 202.86 330.88C202.87 331 202.89 331.11 202.93 331.21C203.67 333.53 209.66 335.62 212.1 336.9C214.66 338.24 222.91 349.94 222.91 349.94C224.68 358.53 197.73 374.7 195.17 373.57Z" fill="#000000" fill-opacity="1.000000" fill-rule="nonzero"/>
	</g>
	<path id="Vector" d="M196.51 371.55C193.94 370.44 189.26 371.11 181.25 368.66C173.23 366.21 171.68 355.17 171.68 355.17L171.68 355.14C171.59 354.88 170.84 353.24 165.79 347.49C160.21 341.13 148.16 309.03 148.16 309.03C148.16 309.03 137.48 297.55 137.81 293.32C138.14 289.09 135.91 277.82 136.14 265.24C136.36 252.65 160.18 244.3 160.18 244.3C206.07 236.16 195.27 289.1 194.04 293.11C192.82 297.12 199.17 307.96 199.17 307.96C198.27 312.67 202.85 319.98 202.85 319.98C202.85 319.98 203.95 326.44 204.19 328.89C204.19 329 204.22 329.12 204.26 329.22C204.99 331.54 210.98 333.63 213.43 334.91C215.99 336.24 224.24 347.95 224.24 347.95C226.02 356.53 199.07 372.69 196.51 371.55Z" fill="#EB5569" fill-opacity="1.000000" fill-rule="nonzero"/>
	<g opacity="0.100000">
		<path id="Vector" d="M161.09 271.94C161.09 271.94 181.13 293.1 186.37 293.1C191.6 293.1 161.09 271.94 161.09 271.94Z" fill="#000000" fill-opacity="1.000000" fill-rule="nonzero"/>
	</g>
	<path id="Vector" d="M196.51 371.55C193.94 370.44 189.26 371.11 181.25 368.66C173.23 366.21 171.68 355.17 171.68 355.17L171.68 355.14C176.99 351.61 190.45 341.65 195.75 338C199.48 335.45 202.53 331.69 204.31 329.2C205.05 331.52 211.04 333.61 213.48 334.89C216.04 336.22 224.29 347.93 224.29 347.93C226.02 356.53 199.07 372.69 196.51 371.55Z" fill="#FF748E" fill-opacity="1.000000" fill-rule="nonzero"/>
	<g opacity="0.100000">
		<g opacity="0.100000">
			<path id="Vector" d="M123.41 175.45C123.44 175.49 123.47 175.53 123.51 175.57C123.66 175.37 123.81 175.18 123.97 175C123.8 175.17 123.61 175.32 123.41 175.45Z" fill="#000000" fill-opacity="1.000000" fill-rule="nonzero"/>
		</g>
		<g opacity="0.100000">
			<path id="Vector" d="M135.1 198.55C135.31 195.75 136.81 193.29 138.21 190.83C137.29 190.48 136.37 190.12 135.47 189.75C135.55 189.18 135.6 188.61 135.6 188.04C134.18 190.56 132.64 193.04 132.42 195.87C132.17 199.24 133.82 202.43 135.3 205.45C140.96 217.14 144.45 230.82 140.19 243.09C138.34 248.42 135.15 253.17 132.82 258.33C128.75 267.46 127.55 277.61 129.39 287.44C130.54 293.55 132.88 299.59 132.3 305.79C131.3 316.44 122.12 324.38 112.91 329.82C109.15 332.05 104.75 334.09 100.54 333.95C100.16 334.57 99.72 335.17 99.25 335.73C104.53 338.07 110.61 335.44 115.58 332.5C124.79 327.06 133.99 319.15 135 308.47C135.57 302.27 133.24 296.23 132.08 290.12C130.24 280.29 131.43 270.14 135.5 261.01C137.82 255.86 141.04 251.11 142.87 245.77C147.13 233.5 143.63 219.82 137.97 208.13C136.51 205.09 134.84 201.92 135.1 198.55Z" fill="#000000" fill-opacity="1.000000" fill-rule="nonzero"/>
		</g>
		<g opacity="0.100000">
			<path id="Vector" d="M204.04 120.92C203.55 120.41 203.02 119.94 202.45 119.51C208.56 127.43 199.74 134.16 199.31 142.69C198.91 150.4 199.56 167.64 191.02 171.5C186.8 173.41 182.27 169.23 177.64 169.13C174.31 169.06 171.25 171.18 169.21 173.82C167.17 176.46 165.92 179.61 164.44 182.6C163.1 185.32 161.55 187.93 159.81 190.41C158.8 191.89 157.63 193.36 156.02 194.19C153.25 195.64 149.89 194.83 146.9 193.89C143.99 192.98 141.12 191.97 138.27 190.87C138.26 191.39 138.22 191.91 138.14 192.43C141.89 193.96 145.7 195.34 149.57 196.55C152.55 197.49 155.92 198.3 158.7 196.86C160.29 196.03 161.45 194.55 162.49 193.07C164.23 190.59 165.77 187.98 167.11 185.27C168.59 182.27 169.84 179.12 171.89 176.48C173.93 173.84 176.98 171.73 180.31 171.8C184.95 171.9 189.47 176.08 193.7 174.17C202.23 170.31 201.58 153.07 201.98 145.36C202.44 136.39 212.19 129.41 204.04 120.92Z" fill="#000000" fill-opacity="1.000000" fill-rule="nonzero"/>
		</g>
	</g>
	<g opacity="0.100000">
		<path id="Vector" d="M137.68 191.69C137.25 192.45 136.84 193.2 136.45 193.98C136.31 194.28 136.17 194.58 136.04 194.89C133.4 192.23 126.98 185.91 123.39 183.95C124.26 182.08 125.4 180.34 126.76 178.8C126.76 178.8 135.31 183.32 137.68 191.69Z" fill="#000000" fill-opacity="1.000000" fill-rule="nonzero"/>
	</g>
	<path id="Vector" d="M137.92 191.28C135.94 182.31 126.76 177.46 126.76 177.46C125.4 179.01 124.26 180.74 123.39 182.61C127.17 184.68 134.14 191.63 136.45 193.98L137.92 191.28Z" fill="#EB5569" fill-opacity="1.000000" fill-rule="nonzero"/>
</svg>
