<svg width="87.061844" height="12.959473" viewBox="0 0 87.0618 12.9595" fill="none" xmlns="http://www.w3.org/2000/svg" xmlns:xlink="http://www.w3.org/1999/xlink">
	<desc>
			Created with Pixso.
	</desc>
	<defs/>
	<path id="GoCorona" d="M2.66 12.39Q3.9 12.95 5.61 12.95Q7.32 12.95 8.6 12.37Q9.56 11.93 10.2 11.21Q10.42 10.97 10.59 10.69Q10.6 10.68 10.6 10.68Q11.3 9.58 11.3 8.04L11.3 5.99Q11.3 5.87 11.25 5.77Q11.22 5.71 11.17 5.66Q11.12 5.6 11.05 5.57Q10.96 5.52 10.85 5.52L6.31 5.52Q6.19 5.52 6.1 5.57Q6.04 5.6 5.98 5.66Q5.94 5.7 5.91 5.76Q5.86 5.86 5.86 5.99L5.86 7.32Q5.86 7.45 5.91 7.55Q5.94 7.61 5.98 7.65Q6.03 7.7 6.09 7.74Q6.19 7.79 6.31 7.79L8 7.79L8 8.13Q8 8.9 7.69 9.4Q7.54 9.65 7.33 9.83Q7.12 10.01 6.86 10.13Q6.33 10.36 5.66 10.36Q4.76 10.36 4.17 9.93Q4.1 9.87 4.02 9.8Q3.41 9.25 3.36 7.98Q3.3 6.4 3.36 4.86Q3.41 3.66 4.01 3.13Q4.07 3.07 4.13 3.02Q4.7 2.59 5.61 2.59Q6.29 2.59 6.71 2.8Q7.14 3.02 7.38 3.32Q7.62 3.61 7.75 3.88Q7.82 4.01 7.92 4.07Q8.02 4.13 8.22 4.13L10.85 4.13Q10.93 4.13 11.01 4.1Q11.07 4.08 11.13 4.03Q11.18 3.98 11.21 3.91Q11.25 3.84 11.25 3.76Q11.22 3.11 10.85 2.44Q10.47 1.77 9.76 1.22Q9.05 0.66 8 0.33Q6.96 1.33e-5 5.61 1.33e-5Q3.94 1.33e-5 2.69 0.55Q1.79 0.96 1.18 1.63Q0.95 1.88 0.76 2.17Q0.08 3.23 0.01 4.76Q0 5.56 0 6.43Q0 7.3 0.01 8.08Q0.08 9.64 0.76 10.73Q0.98 11.1 1.27 11.41Q1.85 12.01 2.66 12.39ZM15.05 12.47Q16.08 12.95 17.6 12.95Q19.12 12.95 20.16 12.47Q20.91 12.12 21.4 11.55Q21.59 11.33 21.74 11.07Q22.29 10.16 22.37 8.9Q22.39 8.54 22.39 8.09Q22.39 7.63 22.37 7.29Q22.29 6.01 21.72 5.11Q21.55 4.85 21.35 4.63Q20.85 4.07 20.1 3.72Q19.07 3.23 17.6 3.23Q16.14 3.23 15.1 3.72Q14.36 4.07 13.86 4.63Q13.66 4.85 13.49 5.11Q12.92 6.01 12.85 7.29Q12.83 7.63 12.83 8.09Q12.83 8.54 12.85 8.9Q12.92 10.16 13.46 11.07Q13.62 11.33 13.82 11.56Q14.31 12.12 15.05 12.47ZM18.65 10.42Q18.28 10.76 17.6 10.76Q16.99 10.76 16.62 10.46Q16.52 10.38 16.44 10.27Q16.05 9.79 16.01 8.81Q16 8.54 16 8.09Q16 7.65 16.01 7.37Q16.05 6.42 16.44 5.93Q16.53 5.81 16.65 5.71Q17.01 5.43 17.6 5.43Q18.26 5.43 18.62 5.76Q18.71 5.83 18.78 5.93Q19.15 6.42 19.2 7.37Q19.22 7.65 19.22 8.09Q19.22 8.54 19.2 8.81Q19.15 9.79 18.78 10.27Q18.72 10.35 18.65 10.42Z" fill="#000000" fill-opacity="1.000000" fill-rule="evenodd"/>
	<path id="GoCorona" d="M26.61 12.4Q27.84 12.95 29.53 12.95Q30.72 12.95 31.73 12.66Q32.73 12.36 33.49 11.79Q34.04 11.38 34.41 10.85Q34.55 10.65 34.67 10.43Q34.69 10.38 34.71 10.34Q35.09 9.57 35.11 8.62Q35.12 8.53 35.09 8.46Q35.06 8.4 35.01 8.35Q34.96 8.3 34.9 8.27Q34.82 8.24 34.73 8.24L32.3 8.24Q32.07 8.24 31.93 8.34Q31.8 8.44 31.73 8.7Q31.49 9.64 30.92 10Q30.34 10.36 29.51 10.36Q28.66 10.36 28.11 9.95Q28.03 9.89 27.95 9.81Q27.37 9.26 27.31 7.98Q27.26 6.44 27.31 4.96Q27.37 3.69 27.95 3.14Q28.03 3.06 28.11 3Q28.66 2.59 29.51 2.59Q30.34 2.59 30.91 2.94Q31.48 3.29 31.73 4.24Q31.81 4.51 31.94 4.61Q32.07 4.71 32.3 4.71L34.73 4.71Q34.83 4.71 34.91 4.67Q34.96 4.65 35.01 4.6Q35.07 4.55 35.09 4.49Q35.12 4.42 35.11 4.33Q35.09 3.37 34.7 2.6Q34.69 2.56 34.67 2.53Q34.54 2.29 34.39 2.07Q34.02 1.55 33.49 1.16Q32.73 0.59 31.73 0.29Q30.72 1.33e-5 29.53 1.33e-5Q27.86 1.33e-5 26.63 0.55Q25.88 0.89 25.34 1.43Q24.99 1.78 24.72 2.21Q24.04 3.31 23.97 4.87Q23.95 5.65 23.95 6.49Q23.95 7.34 23.97 8.08Q24.04 9.68 24.71 10.76Q24.95 11.13 25.24 11.44Q25.81 12.03 26.61 12.4ZM38.68 12.47Q39.72 12.95 41.23 12.95Q42.76 12.95 43.79 12.47Q44.54 12.12 45.03 11.55Q45.23 11.33 45.38 11.07Q45.93 10.16 46 8.9Q46.02 8.54 46.02 8.09Q46.02 7.63 46 7.29Q45.93 6.01 45.35 5.11Q45.19 4.85 44.99 4.63Q44.48 4.07 43.74 3.72Q42.71 3.23 41.23 3.23Q39.78 3.23 38.74 3.72Q38 4.07 37.49 4.63Q37.29 4.85 37.13 5.11Q36.55 6.01 36.48 7.29Q36.46 7.63 36.46 8.09Q36.46 8.54 36.48 8.9Q36.55 10.16 37.1 11.07Q37.26 11.33 37.45 11.56Q37.94 12.12 38.68 12.47ZM57.78 12.47Q58.82 12.95 60.33 12.95Q61.86 12.95 62.89 12.47Q63.64 12.12 64.13 11.55Q64.32 11.33 64.48 11.07Q65.03 10.16 65.1 8.9Q65.12 8.54 65.12 8.09Q65.12 7.63 65.1 7.29Q65.03 6.01 64.45 5.11Q64.29 4.85 64.08 4.63Q63.58 4.07 62.84 3.72Q61.8 3.23 60.33 3.23Q58.87 3.23 57.84 3.72Q57.09 4.07 56.59 4.63Q56.39 4.85 56.22 5.11Q55.65 6.01 55.58 7.29Q55.56 7.63 55.56 8.09Q55.56 8.54 55.58 8.9Q55.65 10.16 56.2 11.07Q56.35 11.33 56.55 11.56Q57.04 12.12 57.78 12.47ZM67.13 12.72Q67.23 12.77 67.35 12.77L69.6 12.77Q69.68 12.77 69.75 12.75Q69.84 12.72 69.91 12.64Q69.99 12.56 70.03 12.46Q70.05 12.4 70.05 12.33L70.05 7.41Q70.05 6.61 70.45 6.15Q70.47 6.13 70.49 6.11Q70.61 5.98 70.75 5.89Q71.13 5.65 71.67 5.65Q72.34 5.65 72.73 5.98Q72.8 6.04 72.86 6.11Q73.27 6.56 73.27 7.41L73.27 12.33Q73.27 12.4 73.29 12.47Q73.33 12.56 73.4 12.64Q73.48 12.72 73.58 12.75Q73.65 12.77 73.72 12.77L75.99 12.77Q76.11 12.77 76.21 12.72Q76.27 12.69 76.31 12.64Q76.39 12.57 76.42 12.47Q76.44 12.4 76.44 12.33L76.44 7.3Q76.44 5.97 75.98 5.07Q75.64 4.39 75.09 3.96Q74.92 3.82 74.72 3.7Q74.64 3.66 74.56 3.62Q73.81 3.23 72.88 3.23Q71.85 3.23 71.09 3.61Q70.34 3.99 69.89 4.55L69.89 3.86Q69.89 3.74 69.84 3.65Q69.81 3.59 69.75 3.54Q69.7 3.49 69.64 3.46Q69.54 3.41 69.42 3.41L67.35 3.41Q67.22 3.41 67.12 3.47Q67.07 3.5 67.02 3.54Q66.99 3.58 66.96 3.62Q66.9 3.72 66.9 3.86L66.9 12.33Q66.9 12.41 66.93 12.48Q66.96 12.57 67.02 12.64Q67.07 12.69 67.13 12.72ZM79.54 12.59Q80.31 12.95 81.28 12.95Q81.98 12.95 82.51 12.78Q83.04 12.61 83.44 12.33Q83.84 12.04 84.07 11.69L84.07 12.33Q84.07 12.41 84.1 12.48Q84.13 12.57 84.2 12.64Q84.24 12.69 84.3 12.72Q84.4 12.77 84.52 12.77L86.61 12.77Q86.69 12.77 86.76 12.75Q86.85 12.72 86.92 12.64Q87 12.56 87.04 12.46Q87.06 12.4 87.06 12.33L87.06 6.85Q87.06 6.06 86.82 5.4Q86.71 5.12 86.55 4.86Q86.35 4.54 86.05 4.26Q85.53 3.77 84.7 3.51Q83.87 3.23 82.72 3.23Q81.59 3.23 80.79 3.51Q80 3.77 79.5 4.19Q78.99 4.6 78.75 5.03Q78.51 5.45 78.51 5.77Q78.5 5.86 78.53 5.94Q78.55 6 78.6 6.06Q78.62 6.07 78.64 6.09Q78.74 6.17 78.91 6.17L80.92 6.17Q81.07 6.17 81.18 6.11Q81.29 6.05 81.37 5.94Q81.49 5.7 81.67 5.54Q81.76 5.46 81.86 5.4Q82.18 5.2 82.68 5.2Q83.41 5.2 83.67 5.54Q83.95 5.88 83.95 6.53L83.95 6.78L81.7 7.12Q79.97 7.39 78.92 8.14Q78.39 8.52 78.13 9.03Q77.88 9.53 77.88 10.16Q77.88 10.6 78.01 10.99Q78.12 11.31 78.32 11.59Q78.38 11.67 78.45 11.75Q78.88 12.26 79.54 12.59ZM48.03 12.72Q48.13 12.77 48.25 12.77L50.48 12.77Q50.6 12.77 50.7 12.73Q50.76 12.7 50.81 12.64Q50.9 12.56 50.93 12.46Q50.95 12.4 50.95 12.33L50.95 7.72Q50.95 7.05 51.27 6.66Q51.31 6.62 51.35 6.57Q51.4 6.53 51.44 6.49Q51.84 6.17 52.5 6.17L54.24 6.17Q54.37 6.17 54.46 6.12Q54.52 6.09 54.57 6.03Q54.64 5.96 54.67 5.87Q54.69 5.8 54.69 5.72L54.69 3.86Q54.69 3.73 54.63 3.63Q54.61 3.58 54.57 3.54Q54.53 3.5 54.48 3.47Q54.38 3.41 54.24 3.41L53.45 3.41Q52.61 3.41 51.93 3.72Q51.54 3.9 51.23 4.15Q50.99 4.34 50.79 4.58L50.79 3.86Q50.79 3.8 50.77 3.75Q50.74 3.64 50.65 3.55Q50.59 3.49 50.52 3.45Q50.43 3.41 50.32 3.41L48.25 3.41Q48.13 3.41 48.04 3.46Q47.98 3.49 47.93 3.55Q47.85 3.63 47.82 3.72Q47.8 3.79 47.8 3.86L47.8 12.33Q47.8 12.41 47.83 12.48Q47.86 12.57 47.93 12.64Q47.97 12.69 48.03 12.72ZM42.28 10.42Q41.91 10.76 41.23 10.76Q40.63 10.76 40.26 10.46Q40.15 10.38 40.07 10.27Q39.68 9.79 39.65 8.81Q39.63 8.54 39.63 8.09Q39.63 7.65 39.65 7.37Q39.68 6.42 40.07 5.93Q40.16 5.81 40.28 5.71Q40.65 5.43 41.23 5.43Q41.89 5.43 42.26 5.76Q42.34 5.83 42.41 5.93Q42.78 6.42 42.83 7.37Q42.85 7.65 42.85 8.09Q42.85 8.54 42.83 8.81Q42.78 9.79 42.41 10.27Q42.35 10.35 42.28 10.42ZM61.38 10.42Q61.01 10.76 60.33 10.76Q59.72 10.76 59.36 10.46Q59.25 10.38 59.17 10.27Q58.78 9.79 58.75 8.81Q58.73 8.54 58.73 8.09Q58.73 7.65 58.75 7.37Q58.78 6.42 59.17 5.93Q59.26 5.81 59.38 5.71Q59.74 5.43 60.33 5.43Q60.99 5.43 61.36 5.76Q61.44 5.83 61.51 5.93Q61.88 6.42 61.93 7.37Q61.95 7.65 61.95 8.09Q61.95 8.54 61.93 8.81Q61.88 9.79 61.51 10.27Q61.45 10.35 61.38 10.42ZM82.96 10.73Q82.58 10.9 82.13 10.9Q81.78 10.9 81.48 10.79Q81.19 10.67 81.01 10.46L81.01 10.45Q80.95 10.38 80.9 10.29Q80.83 10.13 80.83 9.93Q80.83 9.83 80.85 9.74Q80.93 9.46 81.22 9.24Q81.6 8.94 82.45 8.8L83.98 8.52L83.98 8.78Q83.98 9.5 83.73 9.98Q83.54 10.35 83.24 10.57Q83.16 10.63 83.07 10.68Q83.02 10.71 82.96 10.73Z" fill="#EC5863" fill-opacity="1.000000" fill-rule="evenodd"/>
</svg>
