<svg width="40.220993" height="40.000000" viewBox="0 0 40.221 40" fill="none" xmlns="http://www.w3.org/2000/svg" xmlns:xlink="http://www.w3.org/1999/xlink">
	<desc>
			Created with Pixso.
	</desc>
	<defs/>
	<path id="Vector" d="M14.22 4.98C15.64 4.48 17.21 5.16 17.71 6.49C18.1 7.51 17.75 8.61 16.93 9.3L17.38 10.51L18.08 11.33C18.24 11.51 18.49 11.6 18.73 11.57C19.39 11.49 20.05 11.49 20.69 11.56C20.91 11.58 21.13 11.51 21.29 11.35L21.8 10.86L22.17 9.77C21.85 9.33 21.74 8.75 21.93 8.19C22.25 7.26 23.31 6.77 24.24 7.16C25.05 7.49 25.48 8.38 25.25 9.22C25.1 9.75 24.72 10.14 24.25 10.34L23.84 11.55L23.93 12.22C23.96 12.45 24.1 12.65 24.3 12.77C24.97 13.18 25.58 13.68 26.13 14.25C26.31 14.44 26.58 14.53 26.84 14.48L28.18 14.21L29.69 13.37C29.7 12.62 30.1 11.9 30.8 11.51C31.86 10.93 33.2 11.32 33.76 12.4C34.27 13.37 33.95 14.59 33.03 15.18C32.31 15.65 31.43 15.63 30.75 15.24L29.23 16.08L28.38 16.98C28.15 17.22 28.07 17.57 28.15 17.89C28.16 17.89 28.16 17.89 28.16 17.89C28.31 18.45 28.4 19 28.43 19.55C28.45 19.88 28.64 20.18 28.93 20.33L30.04 20.93L32.24 21.35C32.63 21.01 33.16 20.84 33.71 20.95C34.69 21.13 35.32 22.1 35.07 23.07C34.85 23.91 34.03 24.47 33.17 24.36C32.58 24.28 32.11 23.93 31.85 23.45L29.64 23.04L28.27 23.2C28.02 23.24 27.8 23.39 27.7 23.62C27.29 24.53 26.73 25.37 26.03 26.09C25.86 26.27 25.79 26.53 25.86 26.77L26.2 28.08L27.03 29.39C27.95 29.25 28.91 29.65 29.45 30.48C30.16 31.6 29.84 33.08 28.72 33.8C27.61 34.52 26.1 34.21 25.37 33.1C24.86 32.33 24.85 31.38 25.27 30.62L24.38 29.23L23.28 28.33C23.12 28.2 22.9 28.16 22.7 28.23C22.48 28.31 22.26 28.38 22.03 28.44C20.79 28.77 19.54 28.82 18.34 28.61C18.17 28.59 17.99 28.64 17.86 28.75L17.27 29.26L16.83 30.33C17.13 30.79 17.2 31.37 16.98 31.91C16.61 32.83 15.53 33.26 14.62 32.82C13.84 32.45 13.45 31.53 13.73 30.71C13.91 30.19 14.31 29.81 14.79 29.64L15.27 28.45L15.18 27.41C14.31 26.87 13.53 26.17 12.9 25.34L11.41 25.49L10.01 26.18C10.02 27.11 9.54 28 8.69 28.43C7.5 29.04 6.03 28.5 5.42 27.23C4.8 25.96 5.27 24.44 6.47 23.83C7.36 23.38 8.41 23.56 9.13 24.22L10.45 23.57L11.36 22.59C11.42 22.53 11.45 22.44 11.42 22.35L11.42 22.35C11 20.79 11.04 19.2 11.47 17.75C11.49 17.67 11.47 17.58 11.42 17.52L10.63 16.58L8.93 15.69C8.46 15.89 7.91 15.89 7.42 15.64C6.54 15.18 6.22 14.07 6.75 13.21C7.21 12.46 8.19 12.17 8.99 12.56C9.51 12.81 9.84 13.27 9.94 13.79L11.63 14.68L12.84 14.79C12.93 14.8 13.01 14.77 13.06 14.7C13.61 14.03 14.26 13.43 15 12.94C15.21 12.81 15.33 12.58 15.34 12.34L15.35 11.25L14.88 9.96C13.85 9.88 12.92 9.26 12.55 8.3C12.05 6.97 12.79 5.48 14.22 4.98Z" fill="#EC5863" fill-opacity="1.000000" fill-rule="nonzero"/>
	<path id="Vector" d="M18.13 13.96C21.55 13.05 25.07 15.07 25.98 18.47C26.9 21.87 24.87 25.37 21.45 26.28C18.03 27.2 14.51 25.18 13.59 21.77C12.68 18.37 14.71 14.87 18.13 13.96Z" fill="#F58A97" fill-opacity="1.000000" fill-rule="evenodd"/>
	<path id="Vector" d="M20.94 24.41C17.84 25.23 14.66 23.65 13.41 20.82C13.45 21.13 13.51 21.45 13.59 21.77C14.51 25.18 18.03 27.2 21.45 26.28C24.87 25.37 26.9 21.87 25.98 18.47C25.9 18.15 25.79 17.85 25.66 17.55C26 20.63 24.04 23.58 20.94 24.41Z" fill="#F07281" fill-opacity="1.000000" fill-rule="nonzero"/>
	<path id="Vector" d="M9.08 32.21C10.06 31.95 11.06 32.52 11.32 33.49C11.58 34.46 11 35.46 10.03 35.72C9.05 35.98 8.05 35.4 7.79 34.43C7.53 33.46 8.11 32.47 9.08 32.21Z" fill="#EB5569" fill-opacity="1.000000" fill-rule="evenodd"/>
	<path id="Vector" d="M32.63 27.08C33.27 26.91 33.93 27.29 34.11 27.93C34.28 28.57 33.9 29.23 33.25 29.4C32.61 29.57 31.95 29.19 31.77 28.55C31.6 27.91 31.98 27.26 32.63 27.08Z" fill="#EB5569" fill-opacity="1.000000" fill-rule="evenodd"/>
	<path id="Vector" d="M28.66 4.75C29.61 4.49 30.58 5.05 30.84 6C31.09 6.94 30.53 7.91 29.58 8.16C28.63 8.41 27.66 7.85 27.4 6.91C27.15 5.97 27.71 5 28.66 4.75Z" fill="#EB5569" fill-opacity="1.000000" fill-rule="evenodd"/>
	<path id="Vector" d="M18.16 20.88C19.05 20.64 19.95 21.16 20.19 22.04C20.43 22.92 19.9 23.83 19.02 24.06C18.14 24.3 17.23 23.77 16.99 22.9C16.75 22.02 17.28 21.11 18.16 20.88Z" fill="#EB5569" fill-opacity="1.000000" fill-rule="evenodd"/>
	<path id="Vector" d="M22.92 18.78C23.53 18.62 24.14 18.98 24.31 19.58C24.47 20.18 24.11 20.79 23.51 20.95C22.91 21.11 22.29 20.76 22.13 20.16C21.97 19.56 22.32 18.94 22.92 18.78Z" fill="#EB5569" fill-opacity="1.000000" fill-rule="evenodd"/>
	<path id="Vector" d="M18.79 16.43C19.3 16.29 19.82 16.59 19.95 17.09C20.09 17.59 19.79 18.11 19.28 18.24C18.78 18.38 18.26 18.08 18.12 17.58C17.99 17.08 18.29 16.56 18.79 16.43Z" fill="#EB5569" fill-opacity="1.000000" fill-rule="evenodd"/>
</svg>
